<mxfile host="app.diagrams.net" modified="2024-02-28T16:16:03.165Z" agent="Mozilla/5.0 (Macintosh; Intel Mac OS X 10_15_7) AppleWebKit/537.36 (KHTML, like Gecko) Chrome/112.0.0.0 Safari/537.36 Edg/112.0.1722.48" version="23.1.7" etag="3OWo-RGwc69H70FhXrXU" type="github">
  <diagram name="第 1 页" id="nSOitCVyQOVlCl4Sjz1o">
    <mxGraphModel>
      <root>
        <mxCell id="0" />
        <mxCell id="1" parent="0" />
      </root>
    </mxGraphModel>
  </diagram>
</mxfile>
